<?xml version="1.0" encoding="UTF-8" standalone="no"?> <svg xmlns:dc="http://purl.org/dc/elements/1.1/" xmlns:cc="http://creativecommons.org/ns#" xmlns:rdf="http://www.w3.org/1999/02/22-rdf-syntax-ns#" xmlns:svg="http://www.w3.org/2000/svg" xmlns="http://www.w3.org/2000/svg" viewBox="0 0 1624 764.32001" height="764.32001" width="1624" xml:space="preserve" id="svg2" version="1.1"><metadata id="metadata8"></metadata><defs id="defs6"></defs><g transform="matrix(1.3333333,0,0,-1.3333333,0,764.32)" id="g10"><g transform="scale(0.1)" id="g12"><path id="path14" style="fill:#211b3e;fill-opacity:1;fill-rule:nonzero;stroke:none" d="m 6088.84,503.973 h 356.97 c -2.72,48.629 -20.09,86.707 -51.69,113.218 -32.44,27.211 -71.72,41 -116.75,41 -46.1,0 -86.47,-14.07 -119.97,-41.812 -32.66,-27.027 -55.72,-64.84 -68.56,-112.406 z m 572.04,-36.844 c 0,-22.527 -1.63,-44.816 -4.85,-66.27 -3.2,-21.41 -6.46,-39.308 -9.67,-53.207 l -0.56,-2.429 h -556.9 c 13.94,-48.461 40.12,-85.942 77.88,-111.422 38.85,-26.27 87.39,-39.59 144.3,-39.59 42.18,0 81.47,7.219 116.79,21.449 35.47,14.289 70.06,33.871 102.82,58.192 l 2.79,2.058 91.42,-152.93 -2.06,-1.718 C 6577.92,83.8125 6528.5,54.2109 6475.94,33.2813 6423.38,12.3711 6365.75,1.76172 6304.65,1.76172 c -63.22,0 -122.47,10.87888 -176.1,32.32808 -53.64,21.4415 -100.42,51.3594 -139.04,88.9302 -38.68,37.589 -69.42,82.21 -91.37,132.601 -22.01,50.418 -33.17,105.918 -33.17,164.961 0,59.027 10.88,114.52 32.35,164.938 21.44,50.402 51.37,95.011 88.94,132.589 37.53,37.543 82.42,67.461 133.41,88.954 50.98,21.457 106.74,32.339 165.73,32.339 55.78,0 107.49,-9.8 153.68,-29.132 46.13,-19.329 86.17,-46.008 118.99,-79.34 32.78,-33.328 58.39,-73.098 76.12,-118.207 17.71,-45.102 26.69,-94.082 26.69,-145.594 z M 5698,831.379 c -44.14,0 -85.63,-9.008 -123.31,-26.777 -35.16,-16.571 -66.01,-40.7 -91.83,-71.789 V 821.75 H 5277.57 V 21.0195 h 222.95 V 420.582 c 0,70.379 19.6,122.5 58.26,154.887 38.82,32.523 89.44,49.011 150.45,49.011 h 60.92 v 196.399 l -2.15,0.711 c -19.48,6.492 -43.03,9.789 -70,9.789 z M 4820.17,21.0195 h 222.94 V 821.75 H 4820.17 Z M 4932.44,1245.46 c -39.16,0 -73.1,-13.25 -100.86,-39.37 -27.81,-26.18 -41.91,-59.35 -41.91,-98.59 0,-38.17 14.1,-70.79 41.91,-96.97 27.76,-26.12 61.7,-39.37 100.86,-39.37 38.1,0 71.49,13.25 99.25,39.37 27.81,26.18 41.91,58.8 41.91,96.97 0,39.24 -14.1,72.41 -41.91,98.59 -27.76,26.12 -61.15,39.37 -99.25,39.37 z m -421.4,-495.339 c -25.84,28 -57.52,50.129 -94.15,65.758 -36.65,15.613 -78.11,23.523 -123.21,23.523 -46.2,0 -88.18,-7.64 -124.77,-22.703 -34.21,-14.097 -64.58,-33.609 -90.37,-58.058 V 1231.02 H 3855.6 V 21.0195 h 222.94 V 486.391 c 0,44.949 13.74,81.738 40.83,109.339 27.09,27.602 63.05,41.602 106.9,41.602 43.82,0 79.24,-13.711 105.27,-40.769 26.05,-27.122 39.25,-64.192 39.25,-110.172 V 21.0195 h 221.34 V 516.879 c 0,48.23 -7.08,92.594 -21.05,131.863 -14,39.27 -34.2,73.379 -60.04,101.379 z M 3479.59,503.73 l -77.06,32.11 c -28.53,11.609 -49.63,22.289 -62.75,31.742 -12.62,9.07 -18.76,20.84 -18.76,35.969 0,18.23 7.11,31.262 21.72,39.828 14.97,8.762 35.22,13.211 60.21,13.211 31.53,0 62.71,-6.399 92.67,-19.008 29.99,-12.641 58.02,-31.332 83.31,-55.551 l 2.44,-2.351 113.01,137.922 -1.82,2.007 c -73.05,80.551 -169.95,121.403 -288,121.403 -41.79,0 -81.24,-5.449 -117.26,-16.18 -36.04,-10.762 -67.7,-26.602 -94.12,-47.07 -26.46,-20.52 -47.28,-46 -61.88,-75.731 -14.58,-29.742 -21.98,-64.492 -21.98,-103.289 0,-31.351 5.21,-59.57 15.49,-83.883 10.26,-24.339 24.78,-46.507 43.14,-65.929 18.34,-19.43 41.27,-36.91 68.16,-51.95 26.74,-14.988 57.64,-29.628 91.81,-43.488 l 85.01,-35.281 c 24.36,-10.609 44.18,-20.789 58.94,-30.27 14.16,-9.089 21.04,-21.878 21.04,-39.089 0,-21.442 -9.18,-36.801 -28.05,-47 -19.24,-10.391 -42.77,-15.661 -69.93,-15.661 -42.11,0 -81.57,9.59 -117.3,28.532 -35.99,19.039 -70.84,45.308 -103.57,78.078 l -2.43,2.441 -112.92,-136.172 1.48,-1.968 c 35.44,-47.27 82.26,-85.3911 139.16,-113.2895 56.88,-27.9023 121.6,-42.05078 192.37,-42.05078 42.88,0 83.95,5.71875 122.06,16.98828 38.19,11.3008 71.75,27.9414 99.73,49.4727 28.06,21.5781 50.5,48.6683 66.68,80.5073 16.21,31.84 24.42,68.77 24.42,109.75 0,62.68 -19.79,112.61 -58.79,148.36 -38.6,35.39 -94.54,67.992 -166.23,96.89 z m -1107.75,0.243 h 356.96 c -2.71,48.629 -20.08,86.707 -51.68,113.218 -32.44,27.211 -71.72,41 -116.75,41 -46.1,0 -86.47,-14.07 -119.97,-41.812 -32.66,-27.027 -55.71,-64.84 -68.56,-112.406 z m 545.35,108.75 c 17.71,-45.102 26.69,-94.082 26.69,-145.594 0,-22.527 -1.63,-44.816 -4.85,-66.27 -3.2,-21.41 -6.46,-39.308 -9.67,-53.207 l -0.57,-2.429 H 2371.9 c 13.93,-48.461 40.12,-85.942 77.88,-111.422 38.84,-26.27 87.39,-39.59 144.3,-39.59 42.18,0 81.47,7.219 116.79,21.449 35.47,14.289 70.07,33.871 102.82,58.192 l 2.78,2.058 91.43,-152.93 -2.06,-1.718 C 2860.92,83.8125 2811.5,54.2109 2758.94,33.2813 2706.38,12.3711 2648.75,1.76172 2587.65,1.76172 c -63.22,0 -122.47,10.87888 -176.1,32.32808 -53.64,21.4415 -100.43,51.3594 -139.05,88.9302 -38.67,37.589 -69.41,82.21 -91.36,132.601 -22.01,50.418 -33.17,105.918 -33.17,164.961 0,59.027 10.88,114.52 32.35,164.938 21.44,50.402 51.36,95.011 88.94,132.589 37.53,37.543 82.41,67.461 133.41,88.954 50.98,21.457 106.73,32.339 165.72,32.339 55.79,0 107.5,-9.8 153.69,-29.132 46.13,-19.329 86.17,-46.008 118.98,-79.34 32.79,-33.328 58.4,-73.098 76.13,-118.207 z M 1915.88,750.121 c -25.85,28 -57.53,50.129 -94.15,65.758 -36.65,15.613 -78.11,23.523 -123.21,23.523 -46.21,0 -88.18,-7.64 -124.78,-22.703 -34.2,-14.097 -64.57,-33.609 -90.36,-58.058 V 1231.02 H 1260.44 V 21.0195 h 222.94 V 486.391 c 0,44.949 13.74,81.738 40.83,109.339 27.09,27.602 63.05,41.602 106.9,41.602 43.82,0 79.24,-13.711 105.27,-40.769 26.05,-27.122 39.25,-64.192 39.25,-110.172 V 21.0195 h 221.34 V 516.879 c 0,48.23 -7.08,92.594 -21.05,131.863 -14,39.27 -34.2,73.379 -60.04,101.379 z M 354.934,873.52 c 32.843,33.421 71.992,59.71 116.355,78.152 44.414,18.449 93.824,27.801 146.859,27.801 72.637,0 136.625,-16.934 190.204,-50.344 53.66,-33.488 100.195,-81.488 138.296,-142.68 l 1.754,-2.808 185.548,129.711 -1.45,2.488 c -51.46,88.84 -122.29,159.96 -210.523,211.4 -88.301,51.44 -190.516,77.52 -303.829,77.52 -86.433,0 -168.187,-15.4 -242.98,-45.79 C 300.367,1128.57 234.59,1085.91 179.664,1032.15 124.727,978.391 80.582,914.102 48.4414,841.063 16.2969,768.02 0,687.73 0,602.383 0,517 16.2969,436.699 48.4414,363.699 80.5859,290.621 124.73,226.332 179.664,172.602 234.59,118.832 300.367,76.1602 375.168,45.7891 449.961,15.4023 531.715,0 618.148,0 731.5,0 833.723,26.082 921.977,77.5195 1010.21,128.941 1081.04,200.063 1132.5,288.922 l 1.45,2.488 -185.548,129.711 -1.754,-2.812 C 908.551,357.102 862.02,309.09 808.352,275.629 754.824,242.23 690.828,225.301 618.148,225.301 c -53.105,0 -102.511,9.351 -146.859,27.789 -44.348,18.41 -83.496,44.41 -116.379,77.289 -32.883,32.891 -58.887,72.621 -77.277,118.113 -18.457,45.52 -27.809,96.707 -27.809,152.137 0,55.422 9.36,106.91 27.809,153.031 18.418,46.059 44.422,86.391 77.301,119.86 z M 5824.21,2057.15 c -11.56,27.27 -26.72,50.15 -45.04,67.99 -18.32,17.76 -39.53,31.01 -63.06,39.41 -23.64,8.39 -48.4,12.65 -73.59,12.65 -27.26,0 -53.32,-5.04 -77.44,-15.01 -24.12,-9.97 -45.65,-24.31 -63.98,-42.64 -18.36,-18.38 -32.97,-41.23 -43.43,-67.95 -10.51,-26.77 -15.84,-56.88 -15.84,-89.54 0,-33.71 5.32,-64.1 15.83,-90.3 10.48,-26.26 24.84,-49.16 42.7,-68.04 17.8,-18.84 39.3,-33.44 63.9,-43.37 46.33,-18.79 100.01,-20.26 150.24,-2.37 23.55,8.37 45.06,21.38 63.94,38.68 18.81,17.25 34.21,39.57 45.78,66.35 11.54,26.78 17.4,59.56 17.4,97.45 0,36.81 -5.86,69.35 -17.41,96.69 z m 31.85,-496.25 v 90.21 c -27.18,-34.17 -61.56,-60.89 -102.29,-79.5 -43.56,-19.88 -93.95,-29.97 -149.77,-29.97 -56.89,0 -109.69,10.62 -156.94,31.57 -47.25,20.93 -88.38,50.34 -122.23,87.43 -33.82,37.04 -60.75,81.66 -80.05,132.59 -19.31,50.92 -29.1,107.19 -29.1,167.23 0,60.01 9.79,116.29 29.1,167.22 19.33,51 46.53,95.63 80.88,132.62 34.36,37.08 75.75,66.47 123.01,87.42 47.24,20.94 99.5,31.56 155.33,31.56 50.43,0 96.73,-8.72 137.64,-25.92 38.26,-16.12 71.31,-38.67 98.37,-67.11 v 484.64 h 221.34 V 1560.9 Z m -807.35,810.36 c -44.15,0 -85.63,-9.01 -123.31,-26.79 -35.16,-16.57 -66.02,-40.69 -91.83,-71.78 v 88.94 H 4628.28 V 1560.9 h 222.94 v 399.56 c 0,70.38 19.6,122.49 58.26,154.88 38.83,32.53 89.45,49.02 150.46,49.02 h 60.91 v 196.4 l -2.14,0.71 c -19.49,6.49 -43.04,9.79 -70,9.79 z M 3966.38,1728.68 c 20.21,-14.51 46.86,-21.88 79.23,-21.88 46.05,0 85.58,14.33 117.5,42.55 31.77,28.15 47.89,65.69 47.89,111.6 v 6.49 h -167 c -72.4,0 -107.6,-25.21 -107.6,-77.1 0,-27.01 9.81,-47.17 29.98,-61.66 z m -95.17,-168.4 c -34.43,12.35 -63.93,29.29 -87.69,50.36 -23.79,21.09 -42.15,46.56 -54.57,75.74 -12.41,29.13 -18.71,61.4 -18.71,95.92 0,73.45 27.69,131.55 82.31,172.63 54.33,40.89 129.21,61.62 222.57,61.62 H 4211 v 32.18 c 0,42.78 -12.11,76.59 -36,100.51 -23.92,23.88 -60.97,36 -110.13,36 -40.98,0 -77.97,-9.58 -109.95,-28.48 -32.24,-19 -65.22,-45.82 -98.04,-79.72 l -2.44,-2.5 -114.64,137.89 1.66,2 c 90.07,109.38 206.98,164.85 347.48,164.85 50.41,0 97.19,-7.35 139.05,-21.83 41.91,-14.5 78.47,-36.33 108.67,-64.89 30.14,-28.55 53.89,-64.57 70.58,-107.05 16.65,-42.49 25.09,-92.82 25.09,-149.61 v -475 h -203.68 v 72.35 c -27.11,-27.52 -60.43,-49.6 -99.19,-65.69 -41.43,-17.2 -89.08,-25.92 -141.63,-25.92 -42.92,0 -82.16,6.28 -116.62,18.64 z m -673,618.54 c 43.8,0 79.21,-13.99 105.24,-41.56 26.07,-27.66 39.28,-64.46 39.28,-109.39 V 1560.9 h 221.33 v 495.86 c 0,48.23 -7.08,92.58 -21.05,131.86 -13.99,39.27 -34.19,73.37 -60.03,101.38 -25.87,28.01 -58.09,50.14 -95.79,65.77 -37.72,15.59 -80.24,23.51 -126.39,23.51 -49.4,0 -94.1,-8.45 -132.85,-25.14 -36.28,-15.63 -68.26,-36.48 -95.13,-62.03 v 69.52 H 2827.53 V 1560.9 h 222.94 v 466.97 c 0,44.96 13.74,81.73 40.83,109.34 27.1,27.61 63.06,41.61 106.91,41.61 z m -1102.7,-64 c -37.25,-40.4 -56.14,-92.34 -56.14,-154.36 0,-62.01 18.88,-113.4 56.12,-152.72 37.18,-39.29 86.36,-59.21 146.18,-59.21 28.35,0 55.2,5.32 79.82,15.8 24.6,10.45 46.11,25.33 63.95,44.21 17.85,18.9 32.22,41.53 42.71,67.23 10.5,25.75 15.82,54.25 15.82,84.69 0,30.44 -5.32,59.21 -15.82,85.5 -10.52,26.25 -24.89,49.15 -42.71,68.03 -17.83,18.86 -39.36,34.01 -63.99,45.03 -24.63,11 -51.47,16.59 -79.78,16.59 -59.79,0 -108.96,-20.46 -146.16,-60.79 z m 146.16,-571.57 c -58.97,0 -115.26,10.88 -167.3,32.33 -52.01,21.43 -97.96,51.07 -136.6,88.1 -38.68,37.09 -69.43,81.7 -91.39,132.64 -22,50.93 -33.16,106.69 -33.16,165.74 0,59.03 11.16,114.52 33.17,164.96 21.96,50.41 52.71,94.76 91.38,131.82 38.58,36.97 84.26,66.61 135.78,88.1 51.52,21.46 108.09,32.34 168.12,32.34 58.95,0 115.24,-10.88 167.31,-32.34 52.06,-21.49 98.02,-51.13 136.59,-88.1 38.63,-37.03 69.64,-81.35 92.18,-131.79 22.55,-50.47 33.97,-105.98 33.97,-164.99 0,-59.02 -11.42,-114.81 -33.97,-165.77 -22.52,-50.96 -53.54,-95.57 -92.18,-132.61 -38.62,-37.01 -84.58,-66.65 -136.59,-88.1 -52.07,-21.45 -108.36,-32.33 -167.31,-32.33 z m -1143.45,500.6 h 356.96 c -2.71,48.63 -20.09,86.7 -51.68,113.22 -32.45,27.21 -71.73,41 -116.76,41 -46.1,0 -86.46,-14.07 -119.97,-41.82 -32.65,-27.02 -55.71,-64.84 -68.55,-112.4 z m 215.81,-502.21 c -63.22,0 -122.47,10.88 -176.11,32.33 -53.64,21.44 -100.42,51.36 -139.041,88.93 -38.676,37.6 -69.414,82.21 -91.367,132.61 -22.008,50.41 -33.164,105.91 -33.164,164.95 0,59.03 10.882,114.52 32.347,164.95 21.442,50.39 51.368,95.01 88.942,132.58 37.533,37.53 82.413,67.46 133.403,88.95 50.98,21.46 106.74,32.34 165.73,32.34 55.79,0 107.5,-9.8 153.68,-29.13 46.14,-19.33 86.17,-46.01 118.99,-79.33 32.79,-33.35 58.39,-73.11 76.12,-118.22 17.71,-45.1 26.69,-94.08 26.69,-145.61 0,-22.51 -1.62,-44.81 -4.84,-66.26 -3.21,-21.4 -6.47,-39.31 -9.68,-53.2 l -0.56,-2.42 h -556.89 c 13.93,-48.48 40.11,-85.95 77.87,-111.43 38.85,-26.27 87.39,-39.59 144.3,-39.59 42.19,0 81.48,7.21 116.8,21.43 35.46,14.31 70.06,33.89 102.82,58.19 l 2.78,2.07 91.42,-152.93 -2.06,-1.71 c -44.92,-37.46 -94.33,-67.06 -146.9,-87.98 -52.56,-20.92 -110.19,-31.52 -171.28,-31.52 z M 784.262,1560.9 H 61.793 V 2682.02 H 296.098 V 1773.25 H 784.262 V 1560.9"></path><path id="path16" style="fill:#c51938;fill-opacity:1;fill-rule:nonzero;stroke:none" d="m 6577,1600.94 c 11.4,356.07 430.79,775.46 786.86,786.86 356.1,-11.4 775.48,-430.79 786.87,-786.86 C 8139.32,1244.87 7719.97,825.48 7363.86,814.082 7007.8,825.48 6588.38,1244.87 6577,1600.94"></path><path id="path18" style="fill:#f04225;fill-opacity:1;fill-rule:nonzero;stroke:none" d="m 9200.35,1782.69 -788.09,-274.7 -111.69,-774.189 651.39,-661.3518 892.13,161.6598 148.37,854.751 -792.11,693.83"></path><path id="path20" style="fill:#fabc20;fill-opacity:1;fill-rule:nonzero;stroke:none" d="M 10853.4,679.742 12180,2657.04 9262.95,2443.01 Z"></path><path id="path22" style="fill:#f47127;fill-opacity:1;fill-rule:nonzero;stroke:none" d="m 8626.88,3548.05 c -421.65,436.36 -1131.63,500.96 -1630.53,107.84 420.81,-829.05 896.42,-1312.55 1675.07,-1742.33 412.84,483.52 375.66,1196.16 -44.54,1634.49"></path><path id="path24" style="fill:#f3f12d;fill-opacity:1;fill-rule:nonzero;stroke:none" d="m 11568.2,3395.62 -2033.17,-640.06 -814.43,1236.75 1618.6,1740.13 1229,-2336.82"></path></g></g></svg> 